<svg width="24" height="24" viewBox="0 0 24 24" fill="none" xmlns="http://www.w3.org/2000/svg">
<path fill-rule="evenodd" clip-rule="evenodd" d="M19.0371 3.21975C19.3103 3.51275 19.3103 3.98775 19.0371 4.28075L4.32945 20.0537C4.19332 20.2007 4.0143 20.2738 3.83528 20.2738C3.65626 20.2738 3.47724 20.2007 3.34111 20.0537C3.06792 19.7607 3.06792 19.2867 3.34111 18.9937L5.17975 17.023C3.86151 15.7298 2.74327 13.9866 1.92209 11.934C1.84563 11.744 1.84563 11.53 1.92209 11.341C2.87407 8.97695 4.21486 7.01995 5.79994 5.68295C8.87017 3.077 12.9065 2.93867 16.1013 5.30828L18.0488 3.21975C18.322 2.92675 18.7639 2.92675 19.0371 3.21975ZM18.692 8.04075C19.367 9.00175 19.96 10.1128 20.4551 11.3387C20.5325 11.5287 20.5325 11.7448 20.4551 11.9338C18.5008 16.7908 15.037 19.6898 11.1889 19.6898C10.3153 19.6898 9.44628 19.5378 8.60712 19.2388C8.24069 19.1077 8.04208 18.6827 8.16423 18.2898C8.28637 17.8958 8.68078 17.6867 9.04908 17.8147C9.74558 18.0637 10.4654 18.1897 11.1889 18.1897C14.3852 18.1897 17.3064 15.7478 19.0491 11.6368C18.6239 10.6378 18.1288 9.73275 17.5749 8.94275C17.3428 8.61175 17.4043 8.14075 17.7129 7.89175C18.0206 7.64275 18.4598 7.71075 18.692 8.04075ZM6.66614 6.86095C5.32721 7.99095 4.17756 9.63695 3.32908 11.639C4.06889 13.3914 5.0408 14.8693 6.16969 15.9607L8.16297 13.8231C7.75745 13.1832 7.53924 12.4287 7.53924 11.6385C7.53924 9.47855 9.17654 7.72155 11.1887 7.72155C11.9187 7.72155 12.6328 7.95996 13.2274 8.39085L15.0936 6.38945C12.4337 4.54522 9.1962 4.71346 6.66614 6.86095ZM14.2074 11.4615C14.5878 11.5345 14.8405 11.9246 14.7724 12.3326C14.5048 13.9256 13.3281 15.1896 11.8438 15.4796C11.8018 15.4876 11.7589 15.4916 11.7179 15.4916C11.3869 15.4916 11.0922 15.2376 11.0307 14.8756C10.9617 14.4686 11.2135 14.0775 11.5939 14.0035C12.5076 13.8255 13.2312 13.0476 13.3953 12.0666C13.4643 11.6596 13.8279 11.3916 14.2074 11.4615ZM11.1887 9.22155C9.94763 9.22155 8.93784 10.3055 8.93784 11.6385C8.93784 12.0239 9.02244 12.3959 9.1819 12.73L12.2081 9.48399C11.8966 9.31371 11.5461 9.22155 11.1887 9.22155Z" fill="#7C819E"/>
</svg>
